<mxfile host="app.diagrams.net" modified="2023-06-18T19:35:44.364Z" agent="Mozilla/5.0 (Windows NT 10.0; Win64; x64) AppleWebKit/537.36 (KHTML, like Gecko) Chrome/112.0.0.0 YaBrowser/23.5.2.625 Yowser/2.5 Safari/537.36" etag="G-XficZfb4YBdkeabdCZ" version="21.4.0" type="device">
  <diagram name="Page-1" id="2YBvvXClWsGukQMizWep">
    <mxGraphModel dx="1621" dy="424" grid="1" gridSize="10" guides="1" tooltips="1" connect="1" arrows="1" fold="1" page="1" pageScale="1" pageWidth="850" pageHeight="1100" math="0" shadow="0">
      <root>
        <mxCell id="0" />
        <mxCell id="1" parent="0" />
        <mxCell id="aM9ryv3xv72pqoxQDRHE-1" value=":MainWIndow" style="shape=umlLifeline;perimeter=lifelinePerimeter;whiteSpace=wrap;html=1;container=0;dropTarget=0;collapsible=0;recursiveResize=1;outlineConnect=0;portConstraint=eastwest;newEdgeStyle={&quot;edgeStyle&quot;:&quot;elbowEdgeStyle&quot;,&quot;elbow&quot;:&quot;vertical&quot;,&quot;curved&quot;:0,&quot;rounded&quot;:0};portConstraintRotation=0;noLabel=0;connectable=1;allowArrows=1;snapToPoint=0;fixDash=0;expand=1;editable=1;movable=1;resizable=1;rotatable=1;deletable=1;locked=0;comic=0;enumerate=0;treeMoving=0;treeFolding=0;resizeHeight=0;resizeWidth=0;autosize=0;movableLabel=0;backgroundOutline=0;metaEdit=0;rounded=0;glass=0;gradientColor=none;" parent="1" vertex="1">
          <mxGeometry x="50" y="40" width="100" height="250" as="geometry" />
        </mxCell>
        <mxCell id="aM9ryv3xv72pqoxQDRHE-2" value="" style="html=1;points=[];perimeter=orthogonalPerimeter;outlineConnect=0;targetShapes=umlLifeline;portConstraint=eastwest;newEdgeStyle={&quot;edgeStyle&quot;:&quot;elbowEdgeStyle&quot;,&quot;elbow&quot;:&quot;vertical&quot;,&quot;curved&quot;:0,&quot;rounded&quot;:0};" parent="aM9ryv3xv72pqoxQDRHE-1" vertex="1">
          <mxGeometry x="45" y="83" width="10" height="120" as="geometry" />
        </mxCell>
        <mxCell id="aM9ryv3xv72pqoxQDRHE-3" value="Старт &lt;br&gt;приложения" style="html=1;verticalAlign=bottom;startArrow=oval;endArrow=block;startSize=8;edgeStyle=elbowEdgeStyle;elbow=vertical;curved=0;rounded=0;" parent="aM9ryv3xv72pqoxQDRHE-1" target="aM9ryv3xv72pqoxQDRHE-2" edge="1">
          <mxGeometry x="0.0542" relative="1" as="geometry">
            <mxPoint x="-50" y="83" as="sourcePoint" />
            <Array as="points">
              <mxPoint y="83" />
              <mxPoint y="82" />
            </Array>
            <mxPoint as="offset" />
          </mxGeometry>
        </mxCell>
        <mxCell id="aM9ryv3xv72pqoxQDRHE-9" value="Печать логотипа" style="html=1;verticalAlign=bottom;endArrow=block;edgeStyle=elbowEdgeStyle;elbow=vertical;curved=0;rounded=0;" parent="aM9ryv3xv72pqoxQDRHE-1" source="aM9ryv3xv72pqoxQDRHE-2" target="aM9ryv3xv72pqoxQDRHE-4" edge="1">
          <mxGeometry x="-0.2562" relative="1" as="geometry">
            <mxPoint x="115" y="104.99999999999999" as="sourcePoint" />
            <Array as="points">
              <mxPoint x="110" y="74.33333333333333" />
              <mxPoint x="130" y="74.33333333333333" />
              <mxPoint x="130" y="104.99999999999999" />
            </Array>
            <mxPoint x="60" y="74.33333333333333" as="targetPoint" />
            <mxPoint as="offset" />
          </mxGeometry>
        </mxCell>
        <mxCell id="aM9ryv3xv72pqoxQDRHE-4" value="" style="html=1;points=[];perimeter=orthogonalPerimeter;outlineConnect=0;targetShapes=umlLifeline;portConstraint=eastwest;newEdgeStyle={&quot;edgeStyle&quot;:&quot;elbowEdgeStyle&quot;,&quot;elbow&quot;:&quot;vertical&quot;,&quot;curved&quot;:0,&quot;rounded&quot;:0};" parent="aM9ryv3xv72pqoxQDRHE-1" vertex="1">
          <mxGeometry x="53" y="163" width="10" height="12.266666666666664" as="geometry" />
        </mxCell>
        <mxCell id="fYt-F_Qh4SyomyT0gdVA-2" value="Ожидает ввода &lt;br&gt;пользователя" style="html=1;verticalAlign=bottom;endArrow=block;edgeStyle=elbowEdgeStyle;elbow=vertical;curved=0;rounded=0;" edge="1" parent="aM9ryv3xv72pqoxQDRHE-1" target="fYt-F_Qh4SyomyT0gdVA-3" source="aM9ryv3xv72pqoxQDRHE-2">
          <mxGeometry x="-0.1974" relative="1" as="geometry">
            <mxPoint x="55" y="104.99999999999999" as="sourcePoint" />
            <Array as="points">
              <mxPoint x="100" y="83" />
              <mxPoint x="110" y="104.99999999999999" />
              <mxPoint x="130" y="104.99999999999999" />
              <mxPoint x="130" y="135.66666666666666" />
            </Array>
            <mxPoint x="140" y="112.66666666666666" as="targetPoint" />
            <mxPoint as="offset" />
          </mxGeometry>
        </mxCell>
        <mxCell id="fYt-F_Qh4SyomyT0gdVA-3" value="" style="html=1;points=[];perimeter=orthogonalPerimeter;outlineConnect=0;targetShapes=umlLifeline;portConstraint=eastwest;newEdgeStyle={&quot;edgeStyle&quot;:&quot;elbowEdgeStyle&quot;,&quot;elbow&quot;:&quot;vertical&quot;,&quot;curved&quot;:0,&quot;rounded&quot;:0};" vertex="1" parent="aM9ryv3xv72pqoxQDRHE-1">
          <mxGeometry x="53" y="102.99666666666667" width="10" height="12.266666666666664" as="geometry" />
        </mxCell>
        <mxCell id="fYt-F_Qh4SyomyT0gdVA-19" value="" style="shape=umlDestroy;whiteSpace=wrap;html=1;strokeWidth=3;targetShapes=umlLifeline;comic=0;strokeColor=default;fontFamily=Helvetica;fontSize=12;fontColor=default;fillColor=default;" vertex="1" parent="aM9ryv3xv72pqoxQDRHE-1">
          <mxGeometry x="35" y="220" width="30" height="30" as="geometry" />
        </mxCell>
        <mxCell id="aM9ryv3xv72pqoxQDRHE-5" value="start: StartGame" style="shape=umlLifeline;perimeter=lifelinePerimeter;whiteSpace=wrap;html=1;container=0;dropTarget=0;collapsible=0;recursiveResize=0;outlineConnect=0;portConstraint=eastwest;newEdgeStyle={&quot;edgeStyle&quot;:&quot;elbowEdgeStyle&quot;,&quot;elbow&quot;:&quot;vertical&quot;,&quot;curved&quot;:0,&quot;rounded&quot;:0};" parent="1" vertex="1">
          <mxGeometry x="220" y="40" width="100" height="300" as="geometry" />
        </mxCell>
        <mxCell id="aM9ryv3xv72pqoxQDRHE-6" value="" style="html=1;points=[];perimeter=orthogonalPerimeter;outlineConnect=0;targetShapes=umlLifeline;portConstraint=eastwest;newEdgeStyle={&quot;edgeStyle&quot;:&quot;elbowEdgeStyle&quot;,&quot;elbow&quot;:&quot;vertical&quot;,&quot;curved&quot;:0,&quot;rounded&quot;:0};" parent="aM9ryv3xv72pqoxQDRHE-5" vertex="1">
          <mxGeometry x="45" y="200" width="10" height="50" as="geometry" />
        </mxCell>
        <mxCell id="fYt-F_Qh4SyomyT0gdVA-24" value="" style="shape=umlDestroy;whiteSpace=wrap;html=1;strokeWidth=3;targetShapes=umlLifeline;comic=0;strokeColor=default;fontFamily=Helvetica;fontSize=12;fontColor=default;fillColor=default;" vertex="1" parent="aM9ryv3xv72pqoxQDRHE-5">
          <mxGeometry x="35" y="260" width="30" height="30" as="geometry" />
        </mxCell>
        <mxCell id="aM9ryv3xv72pqoxQDRHE-10" value="Запустить игру" style="html=1;verticalAlign=bottom;endArrow=block;endSize=8;edgeStyle=elbowEdgeStyle;elbow=vertical;curved=0;rounded=0;endFill=1;" parent="1" edge="1">
          <mxGeometry relative="1" as="geometry">
            <mxPoint x="265" y="242" as="targetPoint" />
            <Array as="points">
              <mxPoint x="190" y="242" />
              <mxPoint x="180" y="252" />
            </Array>
            <mxPoint x="105" y="242" as="sourcePoint" />
          </mxGeometry>
        </mxCell>
        <mxCell id="fYt-F_Qh4SyomyT0gdVA-4" value="" style="endArrow=block;html=1;rounded=0;endFill=1;" edge="1" parent="1">
          <mxGeometry width="50" height="50" relative="1" as="geometry">
            <mxPoint y="242" as="sourcePoint" />
            <mxPoint x="95" y="242" as="targetPoint" />
            <Array as="points">
              <mxPoint x="60" y="242" />
              <mxPoint x="70" y="242" />
            </Array>
          </mxGeometry>
        </mxCell>
        <mxCell id="fYt-F_Qh4SyomyT0gdVA-5" value="Нажат Enter" style="edgeLabel;html=1;align=center;verticalAlign=middle;resizable=0;points=[];" vertex="1" connectable="0" parent="fYt-F_Qh4SyomyT0gdVA-4">
          <mxGeometry x="0.2876" y="1" relative="1" as="geometry">
            <mxPoint x="-21" y="-14" as="offset" />
          </mxGeometry>
        </mxCell>
        <mxCell id="fYt-F_Qh4SyomyT0gdVA-21" value="" style="group" vertex="1" connectable="0" parent="1">
          <mxGeometry x="400" y="230" width="120" height="220" as="geometry" />
        </mxCell>
        <mxCell id="fYt-F_Qh4SyomyT0gdVA-20" value="Создать объект" style="html=1;verticalAlign=bottom;endArrow=block;edgeStyle=elbowEdgeStyle;elbow=vertical;curved=0;rounded=0;fontFamily=Helvetica;fontSize=12;fontColor=default;" edge="1" parent="fYt-F_Qh4SyomyT0gdVA-21" source="aM9ryv3xv72pqoxQDRHE-6">
          <mxGeometry width="80" relative="1" as="geometry">
            <mxPoint x="-90" y="19" as="sourcePoint" />
            <mxPoint x="20" y="10" as="targetPoint" />
            <Array as="points">
              <mxPoint x="-80" y="10" />
              <mxPoint y="19" />
            </Array>
          </mxGeometry>
        </mxCell>
        <mxCell id="fYt-F_Qh4SyomyT0gdVA-10" value="gameWindow: GameWindow" style="shape=umlLifeline;perimeter=lifelinePerimeter;whiteSpace=wrap;html=1;container=1;dropTarget=0;collapsible=0;recursiveResize=0;outlineConnect=0;portConstraint=eastwest;newEdgeStyle={&quot;edgeStyle&quot;:&quot;elbowEdgeStyle&quot;,&quot;elbow&quot;:&quot;vertical&quot;,&quot;curved&quot;:0,&quot;rounded&quot;:0};comic=0;strokeColor=default;fontFamily=Helvetica;fontSize=12;fontColor=default;fillColor=default;" vertex="1" parent="fYt-F_Qh4SyomyT0gdVA-21">
          <mxGeometry x="20" width="100" height="190" as="geometry" />
        </mxCell>
        <mxCell id="fYt-F_Qh4SyomyT0gdVA-23" value="" style="html=1;points=[];perimeter=orthogonalPerimeter;outlineConnect=0;targetShapes=umlLifeline;portConstraint=eastwest;newEdgeStyle={&quot;edgeStyle&quot;:&quot;elbowEdgeStyle&quot;,&quot;elbow&quot;:&quot;vertical&quot;,&quot;curved&quot;:0,&quot;rounded&quot;:0};comic=0;strokeColor=default;fontFamily=Helvetica;fontSize=12;fontColor=default;fillColor=default;" vertex="1" parent="fYt-F_Qh4SyomyT0gdVA-10">
          <mxGeometry x="45" y="59.33333333333333" width="10" height="50.666666666666664" as="geometry" />
        </mxCell>
        <mxCell id="fYt-F_Qh4SyomyT0gdVA-25" value="" style="html=1;points=[];perimeter=orthogonalPerimeter;outlineConnect=0;targetShapes=umlLifeline;portConstraint=eastwest;newEdgeStyle={&quot;edgeStyle&quot;:&quot;elbowEdgeStyle&quot;,&quot;elbow&quot;:&quot;vertical&quot;,&quot;curved&quot;:0,&quot;rounded&quot;:0};comic=0;strokeColor=default;fontFamily=Helvetica;fontSize=12;fontColor=default;fillColor=default;" vertex="1" parent="fYt-F_Qh4SyomyT0gdVA-10">
          <mxGeometry x="50" y="69.16666666666666" width="10" height="25.333333333333332" as="geometry" />
        </mxCell>
        <mxCell id="fYt-F_Qh4SyomyT0gdVA-26" value="Ожидает ввода &lt;br&gt;пользователя" style="html=1;align=left;spacingLeft=2;endArrow=block;rounded=0;edgeStyle=orthogonalEdgeStyle;curved=0;rounded=0;fontFamily=Helvetica;fontSize=12;fontColor=default;" edge="1" parent="fYt-F_Qh4SyomyT0gdVA-10">
          <mxGeometry relative="1" as="geometry">
            <mxPoint x="55" y="59.5" as="sourcePoint" />
            <Array as="points">
              <mxPoint x="85" y="78.5" />
            </Array>
            <mxPoint x="60" y="78.53846153846155" as="targetPoint" />
          </mxGeometry>
        </mxCell>
        <mxCell id="fYt-F_Qh4SyomyT0gdVA-22" value="Начать игру" style="html=1;verticalAlign=bottom;endArrow=block;edgeStyle=elbowEdgeStyle;elbow=vertical;curved=0;rounded=0;fontFamily=Helvetica;fontSize=12;fontColor=default;" edge="1" parent="1" source="aM9ryv3xv72pqoxQDRHE-6" target="fYt-F_Qh4SyomyT0gdVA-23">
          <mxGeometry width="80" relative="1" as="geometry">
            <mxPoint x="310" y="280" as="sourcePoint" />
            <mxPoint x="390" y="280" as="targetPoint" />
            <Array as="points">
              <mxPoint x="360" y="290" />
            </Array>
          </mxGeometry>
        </mxCell>
      </root>
    </mxGraphModel>
  </diagram>
</mxfile>
